# xmcd CD database file
#
# Track frame offsets:
#	150
#	13966
#	39486
#	59886
#	85973
#	107843
#	127122
#	145207
#	172782
#	194786
#
# Disc length: 2907 seconds
#
# Revision: 1
# Processed by: cddbd v1.5.2PL0 Copyright (c) Steve Scherf et al.
# Submitted via: CDex 1.79
#
DISCID=970b590a
DTITLE=Boba Jazz Band - Boba Jump
DYEAR=2014
DGENRE=Jazz
TTITLE0=The Big Apple
TTITLE1=Drum Boogie
TTITLE2=On The Sunny Side of The Street
TTITLE3=Just a Gigolo I Ain't Got Nobody
TTITLE4=All That Meat No Potatoes
TTITLE5=Oh Marie
TTITLE6=Caledonia
TTITLE7=Sentimental Journey
TTITLE8=Jump, Jive an' Wail
TTITLE9=When The Saints Go Marching In
EXTD=YEAR: 2014
EXTT0=
EXTT1=
EXTT2=
EXTT3=
EXTT4=
EXTT5=
EXTT6=
EXTT7=
EXTT8=
EXTT9=
PLAYORDER=
